# xmcd
#
# Track frame offsets:
#	150
#	15192
#	28752
#	42650
#	54535
#	69225
#	82845
#	96537
#	109620
#	123552
#	138190
#	153617
#	168100
#	181062
#	194130
#	207484
#	221945
#	233925
#	248175
#	259680
#	272685
#	286030
#
# Disc length: 3987 seconds
#
# Revision: 0
# Processed by: cddbd v1.4PL0 Copyright (c) Steve Scherf et al.
# Submitted via: audiograbber 1.82.02
#
DISCID=3e0f9116
DTITLE=Roosevelt Sykes - Roosevelt Sykes - The Honeydripper Vol 2 (1944-1950)
DYEAR=1900
DGENRE=Blues
TTITLE0=Jivin' The Jive
TTITLE1=Mellow Queen
TTITLE2=Strange Woman
TTITLE3=This Tavern Boogie
TTITLE4=Anytime Is The Right Time
TTITLE5=The Honeydripper
TTITLE6=Date Bait
TTITLE7=Peepin' Tom
TTITLE8=Sunny Road
TTITLE9=Living In A Different World
TTITLE10=Flames Of Jive
TTITLE11=Homesick Blues
TTITLE12=I'm Her Honeydripper
TTITLE13=Bobby Sox Blues
TTITLE14=Kilroy's In Town
TTITLE15=Walkin' And Drinkin'
TTITLE16=High As A Georgia Pine
TTITLE17=Until The Cows Come Home
TTITLE18=Southern Blues
TTITLE19=My Baby Is Gone
TTITLE20=Rock It
TTITLE21=Drivin' Wheel
EXTD=
EXTT0=
EXTT1=
EXTT2=
EXTT3=
EXTT4=
EXTT5=
EXTT6=
EXTT7=
EXTT8=
EXTT9=
EXTT10=
EXTT11=
EXTT12=
EXTT13=
EXTT14=
EXTT15=
EXTT16=
EXTT17=
EXTT18=
EXTT19=
EXTT20=
EXTT21=
PLAYORDER=
